<mxfile host="app.diagrams.net" modified="2023-05-20T15:20:24.593Z" agent="Mozilla/5.0 (X11; Linux x86_64) AppleWebKit/537.36 (KHTML, like Gecko) Chrome/113.0.0.0 Safari/537.36" version="21.3.0" etag="I8Uv_QFD9QfxBseMNQ34" type="github">
  <diagram name="Page-1" id="XuIpH6tI24n9b6IJmCxO">
    <mxGraphModel>
      <root>
        <mxCell id="0" />
        <mxCell id="1" parent="0" />
      </root>
    </mxGraphModel>
  </diagram>
</mxfile>
